# xmcd
#
# Track frame offsets: 
#        150
#        14265
#        27931
#        39800
#        56597
#        72204
#        89110
#        102888
#        119708
#        134984
#        150464
#        168385
#        184633
#
# Disc length: 2670 seconds
#
# Revision: 0
# Processed by: cddbd v1.5.2PL0 Copyright (c) Steve Scherf et al.
# Submitted via: ExactAudioCopy v1.3
#
DISCID=b00a6c0d
DTITLE=Crazy Hambones - Beautiful
DYEAR=2019
DGENRE=Blues
TTITLE0=No Disputation
TTITLE1=Who's Gonna Take These Blues Away
TTITLE2=Your God Is A Dollar
TTITLE3=Your Time Now
TTITLE4=Behind The Sun
TTITLE5=Out Of My Head
TTITLE6=Beautiful
TTITLE7=Can't Judge A Book
TTITLE8=Leave My Money Alone
TTITLE9=Bullfrog Blues
TTITLE10=Cornbread, Peas And Black Molasses
TTITLE11=Wild Wild Woman
TTITLE12=Boogie Around The World
EXTD=
EXTT0=
EXTT1=
EXTT2=
EXTT3=
EXTT4=
EXTT5=
EXTT6=
EXTT7=
EXTT8=
EXTT9=
EXTT10=
EXTT11=
EXTT12=
PLAYORDER=
